<?xml version="1.0" standalone="no"?><!DOCTYPE svg PUBLIC "-//W3C//DTD SVG 1.1//EN" "http://www.w3.org/Graphics/SVG/1.1/DTD/svg11.dtd"><svg t="1782874168177" class="icon" viewBox="0 0 1024 1024" version="1.1" xmlns="http://www.w3.org/2000/svg" p-id="18855" xmlns:xlink="http://www.w3.org/1999/xlink" width="200" height="200"><path d="M843.968 134.144A82.56 82.56 0 0 0 765.696 64h-507.52a82.688 82.688 0 0 0-78.72 72.064l-108.608 624.128a126.848 126.848 0 0 0-6.848 39.552 128 128 0 0 0 128 128h639.744a128 128 0 0 0 128-128c0-13.888-2.816-27.008-6.912-39.616l-108.864-625.92zM245.76 128h532.16l96 551.488a127.296 127.296 0 0 0-42.176-7.68H192c-14.784 0-28.8 3.008-42.112 7.68L245.824 128z m585.984 735.744H192a64.064 64.064 0 0 1 0-128h639.808a64.064 64.064 0 0 1 0 128z m-32-96a32 32 0 1 0 0 64 32 32 0 0 0 0-64z" fill="#32BCF9" p-id="18856"></path><path d="M638.464 277.504c0 25.856 20.352 47.488 46.848 49.28 15.36 1.28 28.288 14.272 27.136 30.272v38.848a31.552 31.552 0 0 1-28.992 31.488 49.344 49.344 0 0 0-41.856 69.12c0.64 0.64 0.64 1.216 1.792 2.432a30.848 30.848 0 0 1-12.288 39.488l-32.64 19.136a30.272 30.272 0 0 1-40.64-9.28 50.176 50.176 0 0 0-41.28-22.208 48.64 48.64 0 0 0-41.28 22.208 30.784 30.784 0 0 1-40.704 9.28l-32.64-19.136a30.912 30.912 0 0 1-12.288-40.128 45.824 45.824 0 0 0 5.504-22.144 49.984 49.984 0 0 0-46.784-49.984A31.36 31.36 0 0 1 320 395.328v-37.632c0-16.64 12.288-29.632 28.352-30.848a49.92 49.92 0 0 0 46.784-49.984 45.888 45.888 0 0 0-5.504-22.208 30.912 30.912 0 0 1 12.288-40.064l16-9.28 17.28-9.28a30.976 30.976 0 0 1 40.64 9.28 48.64 48.64 0 0 0 41.216 22.208 48.64 48.64 0 0 0 41.344-22.208 30.912 30.912 0 0 1 40.64-9.28l16 9.28 16.64 9.856a30.976 30.976 0 0 1 12.288 40.064 45.888 45.888 0 0 0-5.504 22.272z m-16.064 139.072c4.672-12.096 7.104-24.96 7.168-37.952 0-13.568-1.792-26.176-6.272-37.952a118.272 118.272 0 0 0-19.712-34.304 117.76 117.76 0 0 0-66.304-37.952 133.568 133.568 0 0 0-19.712-1.792c-7.168 0-13.44 0.896-19.712 1.792-26.88 4.544-50.176 18.048-66.304 37.952-8.96 9.92-15.232 21.632-19.712 34.304a130.56 130.56 0 0 0-6.272 37.952c0 12.992 2.496 25.856 7.104 37.952 4.544 12.672 10.816 24.32 19.84 34.304a112.256 112.256 0 0 0 85.056 39.744 112.704 112.704 0 0 0 85.12-39.744c8.064-9.92 15.232-21.632 19.712-34.304z" fill="#32BCF9" p-id="18857"></path></svg>