<?xml version="1.0" standalone="no"?><!DOCTYPE svg PUBLIC "-//W3C//DTD SVG 1.1//EN" "http://www.w3.org/Graphics/SVG/1.1/DTD/svg11.dtd"><svg t="1782873925585" class="icon" viewBox="0 0 1024 1024" version="1.1" xmlns="http://www.w3.org/2000/svg" p-id="11069" xmlns:xlink="http://www.w3.org/1999/xlink" width="200" height="200"><path d="M11.968 471.808c5.184-15.488 15.68-26.752 28.48-36.288 42.176-31.36 88-56.704 134.848-80.384 77.888-39.296 158.144-73.088 242.432-96.128 22.784-6.208 46.592-9.28 70.08-12.416 33.92-4.48 67.968-8.256 102.016-11.392 29.632-2.752 59.392-4.544 89.152-6.208 22.592-1.28 45.248-1.664 67.904-2.56 1.024-0.064 1.984-0.704 2.944-1.088h15.104c1.344 0.384 2.752 1.152 4.096 1.152h49.856c1.408 0 2.752-0.768 4.16-1.152h15.104c2.304 0.384 4.672 1.088 7.04 1.088 33.28 0.832 66.496 2.752 98.752 11.84 8.832 2.496 17.088 6.784 25.6 10.24-7.936 0-15.872-0.064-23.808 0.064-20.672 0.32-41.344 0.192-62.016 1.344-20.736 1.152-41.408 3.52-62.016 5.568-18.368 1.856-36.736 3.648-55.04 6.016-19.968 2.816-39.872 6.016-59.776 9.216-26.944 4.352-53.824 9.024-80.704 13.568l-42.624 7.616-2.112-1.536c-4.16-8.192-11.648-12.16-19.712-15.04a107.264 107.264 0 0 0-50.112-4.672c-23.232 2.816-44.928 9.6-63.552 24.064-9.408 7.296-17.6 16-16.64 29.504v5.824c-16.256 4.8-32.64 9.344-48.768 14.592-32.128 10.432-64.128 21.184-96.192 31.936-21.952 7.36-43.968 14.656-65.856 22.4-53.888 19.072-107.648 38.4-161.408 57.664-15.808 5.696-31.488 11.648-47.232 17.472v-2.304z" fill="#7E4E3A" p-id="11070"></path><path d="M11.968 474.112c15.744-5.824 31.424-11.776 47.232-17.472 53.76-19.328 107.584-38.592 161.408-57.664 21.824-7.744 43.84-15.04 65.856-22.4 32.064-10.752 64.064-21.504 96.192-31.936 16.128-5.248 32.448-9.792 48.704-14.656 4.352 9.408 12.288 14.976 20.992 19.648a18.88 18.88 0 0 1-1.6 1.6c-29.376 24.832-58.944 49.408-88 74.56-19.008 16.448-37.248 33.728-55.808 50.624-10.944 0.384-21.952 1.088-32.96 1.152-79.744 0.128-159.488 0.064-239.232 0-4.8 0-9.6-1.024-14.336-0.896-2.816 0-5.632 1.344-8.448 2.112v-4.672z" fill="#513326" p-id="11071"></path><path d="M11.968 478.784c2.816-0.768 5.632-2.048 8.448-2.112 4.8-0.128 9.6 0.896 14.336 0.896h239.232c11.008 0 21.952-0.768 32.96-1.152l-4.544 5.12c-6.656 7.168-13.952 13.952-16.448 24-14.08 0-28.16-0.064-42.24 0.064-1.728 0-3.392 1.408-5.12 2.176-1.792-0.768-3.52-2.112-5.312-2.176-50.304-1.728-100.672-3.2-150.976-5.056-18.176-0.64-36.288-2.304-54.464-3.392-6.784-0.384-9.728-5.568-13.12-10.24-1.024-1.472-1.856-3.136-2.752-4.672v-3.456z" fill="#462B20" p-id="11072"></path><path d="M823.104 225.408c-1.408 0.384-2.752 1.152-4.16 1.152h-49.856c-1.408 0-2.752-0.768-4.096-1.152h58.112z" fill="#BEA492" p-id="11073"></path><path d="M583.552 291.904c14.208-2.496 28.352-5.12 42.56-7.552 26.88-4.608 53.76-9.216 80.704-13.568 19.904-3.264 39.808-6.4 59.84-9.088 18.304-2.432 36.672-4.224 55.04-6.016 20.672-2.048 41.344-4.416 62.016-5.568 20.608-1.152 41.344-1.024 62.016-1.344 7.936-0.128 15.872-0.064 23.808-0.064 9.088 4.608 16.704 10.624 19.968 20.864-2.56 1.536-5.44 2.816-7.744 4.736-6.656 5.504-12.864 11.712-19.712 16.896-17.152 13.056-34.496 25.92-51.968 38.464-37.504 26.944-76.928 50.88-117.888 72.064-19.712 10.176-40.128 18.944-60.416 28.032-45.696 20.48-94.272 29.056-143.68 33.92-15.68 1.472-31.424 2.368-47.104 3.52-21.312 1.536-42.56 3.2-63.872 4.544-17.088 1.024-34.24 1.728-51.392 2.304-27.52 0.896-55.104 1.6-82.688 2.368 12.672-12.48 25.152-25.152 38.08-37.376 30.528-28.8 61.44-57.152 96-81.216 0.832-0.576 1.408-1.664 2.048-2.496 8.704-0.32 17.536-0.192 26.176-0.96 22.336-1.984 43.2-8.64 61.056-22.336 12.928-9.856 23.68-21.568 17.152-40.128zM814.016 467.072l29.184 58.112c-0.32 0.896-0.384 1.984-0.96 2.688l-38.912 55.488c-1.728 0.064-3.648-0.384-5.12 0.256-33.536 13.76-66.944 28.096-100.672 41.408-25.664 10.112-52.032 18.56-79.232 23.232-22.912 3.968-45.952 6.976-69.12 9.28-22.784 2.304-45.696 4.032-68.544 4.608-33.024 0.832-66.048 0.64-98.944-3.264-16.576-1.984-33.216-3.84-49.792-5.76-0.512-2.24-1.28-4.48-1.408-6.784-0.256-4.288-0.128-8.64-0.128-12.928a38.336 38.336 0 0 0-11.456-62.016c-7.36-1.728-11.328-5.824-9.92-13.824l0.704-9.088 29.952 2.368c16.512 1.216 33.024 2.624 49.536 3.392 23.936 1.088 47.808 1.856 71.744 2.304 9.984 0.192 20.032-0.64 30.08-1.024 19.84-0.768 39.744-1.088 59.584-2.496 19.136-1.344 38.4-2.88 57.344-6.08 23.104-3.904 46.144-8.832 68.736-14.848a393.152 393.152 0 0 0 118.144-52.224c6.4-4.352 12.8-8.576 19.2-12.8z" fill="#513326" p-id="11074"></path><path d="M814.016 467.072l-19.2 12.672a393.152 393.152 0 0 1-118.144 52.224c-22.656 6.08-45.632 11.008-68.736 14.912-18.944 3.2-38.144 4.736-57.344 6.08-19.84 1.408-39.68 1.728-59.584 2.496-10.048 0.384-20.032 1.216-30.08 1.024a2693.76 2693.76 0 0 1-71.744-2.304c-16.512-0.768-33.024-2.176-49.536-3.392a2358.208 2358.208 0 0 1-29.952-2.368c0.576-14.592 0.704-29.184 6.656-42.944l39.936-1.152a5032.256 5032.256 0 0 0 123.136-4.672 334.72 334.72 0 0 0 17.856-1.28l46.464-4.48c16.64-1.6 33.344-2.816 49.92-4.864 17.728-2.176 35.456-4.608 52.992-8 25.088-4.8 50.176-9.92 74.944-16.128a350.592 350.592 0 0 0 74.88-29.12c1.536-0.768 3.52-0.768 5.312-1.152l12.224 32.448z" fill="#3F1809" p-id="11075"></path><path d="M801.856 434.56c-1.792 0.384-3.712 0.384-5.312 1.152a352.128 352.128 0 0 1-74.88 29.184c-24.768 6.208-49.856 11.264-74.944 16.128-17.6 3.328-35.328 5.76-52.992 7.936-16.576 2.048-33.28 3.264-49.92 4.864l-46.528 4.544a334.72 334.72 0 0 1-17.856 1.28c-17.92 0.832-35.84 1.664-53.76 2.368-23.104 0.832-46.272 1.6-69.376 2.304l-39.936 1.152c0.896-1.664 1.472-3.584 2.752-4.928 7.872-8.128 15.936-16.128 23.936-24.128 27.584-0.768 55.168-1.408 82.688-2.304a1971.2 1971.2 0 0 0 51.392-2.304c21.312-1.408 42.56-3.072 63.872-4.608 15.744-1.152 31.488-2.048 47.168-3.584 49.408-4.864 97.984-13.44 143.68-33.92 20.224-9.088 40.704-17.856 60.416-28.032a944 944 0 0 0 117.888-72.064c17.536-12.544 34.816-25.408 51.968-38.464 6.912-5.248 13.056-11.392 19.712-16.896 2.304-1.92 5.12-3.2 7.744-4.736a24.832 24.832 0 0 1-2.368 23.744c-4.736 7.616-10.24 15.168-16.896 20.992-51.136 44.416-105.216 84.672-164.992 116.928-1.408 0.704-2.368 2.24-3.456 3.392z" fill="#452A1F" p-id="11076"></path><path d="M985.984 506.624c3.648-2.304 7.552-4.288 10.816-7.04 5.504-4.736 6.912-4.928 10.368 1.536 11.84 21.824 14.336 44.992 8.32 68.928a136.64 136.64 0 0 1-29.504 54.528 154.368 154.368 0 0 1-41.216 33.152 234.368 234.368 0 0 0-33.6 25.472c-13.44 11.648-25.984 24.192-39.04 36.288-1.088 1.024-2.56 1.536-3.84 2.304-0.512-1.216-1.216-2.304-1.6-3.584-5.76-21.76-14.464-42.048-29.312-59.328l-0.448-2.176 42.368-42.752 102.208-103.552c1.408-1.472 3.008-2.56 4.48-3.776z" fill="#F7DEB0" p-id="11077"></path><path d="M680 702.784c-12.288 2.88-24.704 5.504-36.928 8.64a471.808 471.808 0 0 1-107.712 14.528c-37.888 0.768-75.776 0.128-113.664-1.216-22.72-0.832-45.376-4.16-68.096-6.272-3.072-0.32-6.144-0.256-9.28-0.32l0.064 0.128-0.96-1.024-7.552-44.16c2.112 0.192 4.224 0.192 6.272 0.512 8.96 1.28 17.856 2.88 26.816 3.968 14.912 1.792 29.824 3.456 44.736 4.8 18.368 1.664 36.8 4.16 55.232 4.288 31.872 0.128 63.744-0.576 95.552-2.304a336.64 336.64 0 0 0 52.992-7.552c42.176-9.152 82.496-24.128 122.496-40 8.576-3.392 17.408-6.144 26.112-9.152l-12.608 14.016-27.776 26.496c-1.792 1.472-3.456 3.072-5.312 4.416l-39.04 29.504-1.344 1.024v-0.32z" fill="#513326" p-id="11078"></path><path d="M803.328 583.36l38.912-55.488c0.512-0.768 0.576-1.792 0.896-2.752 3.584-5.44 7.232-10.88 10.688-16.384 15.744-25.216 38.592-38.016 68.16-36.736 19.712 0.832 37.376 8.32 52.16 21.888-12.8 14.464-25.344 29.12-38.4 43.264-29.888 32.32-60.096 64.32-90.112 96.512-4.608 4.928-8.896 10.048-13.376 15.104-1.344-1.28-2.88-2.432-4.096-3.84a116.544 116.544 0 0 0-46.656-33.92l21.824-27.648z" fill="#F7DEB0" p-id="11079"></path><path d="M680.192 913.472c-34.24 15.552-65.344 8.448-93.504-14.144a114.944 114.944 0 0 1-41.92-70.848c-4.16-22.976-1.344-44.736 16.512-61.568 5.888-5.568 14.592-8.064 22.08-11.968 12.992 0.704 26.368-0.896 38.72 4.096 9.28 3.712 17.92 8.896 26.816 13.44l-7.296-1.536a31.552 31.552 0 0 0-32.896 13.184 43.584 43.584 0 0 0-6.528 32c4.16 26.432 17.92 45.76 42.368 56.64 21.568 9.6 42.112-1.152 47.68-24.064 2.56-10.432 0.704-20.544-1.408-30.72 5.056 8.064 11.072 15.68 14.976 24.256 11.712 25.6 6.272 45.824-16 63.232-3.2 2.56-6.4 5.312-9.6 8z" fill="#EEB684" p-id="11080"></path><path d="M680.192 913.472c3.2-2.688 6.336-5.44 9.664-8 22.272-17.408 27.712-37.632 16-63.232-3.904-8.576-9.92-16.192-14.976-24.256-2.624-5.376-4.864-10.944-8-16-2.368-3.776-1.344-5.632 1.664-8.128 15.936-13.504 31.68-27.264 47.488-40.896l69.056-59.392c15.488 19.072 25.856 40.192 25.664 65.408 0 1.984 0.704 3.904 1.024 5.888-13.056 13.888-26.24 27.712-39.104 41.792-20.352 22.4-40.32 45.12-60.8 67.392-10.24 11.136-20.928 21.952-32.192 32.128-4.032 3.648-10.24 4.928-15.488 7.296z" fill="#F7DEB0" p-id="11081"></path><path d="M335.872 672.96l7.552 44.16 0.96 1.024-0.064-0.128 5.12 34.816c1.472 10.688 3.2 21.376 4.16 32.128 0.896 9.856 0.512 9.92-9.28 13.248l-2.304-13.056c-4.992-25.28-9.984-50.624-15.104-75.84-0.512-2.624-1.984-5.056-3.008-7.552a127.36 127.36 0 0 0-1.664 0.192c-0.768 2.048-1.856 4.096-2.368 6.208-4.8 18.88-0.896 37.568 1.856 56.192 1.92 12.928 4.992 25.664 7.552 38.528a61.568 61.568 0 0 1-37.056 0.96c-17.344-5.376-24.64-19.264-25.472-35.84-0.96-19.008 0.32-38.208 0.64-57.28l0.384-9.856 6.72-40.768 2.048-7.36c17.984 8.704 36.48 7.808 55.104 2.688l4.224 17.536z" fill="#F5B354" p-id="11082"></path><path d="M648.896 772.416c-8.896-4.544-17.536-9.728-26.816-13.44-12.352-4.928-25.728-3.392-38.72-4.096 7.552-3.712 14.912-7.744 22.656-11.008a400.448 400.448 0 0 0 70.784-37.952c1.216-0.832 2.112-2.048 3.136-3.136v0.192l1.344-1.024 39.04-29.504c1.856-1.408 3.52-2.944 5.312-4.416l12.096-0.128c18.304-0.064 35.584 3.584 50.944 14.016 1.792 1.216 3.072 3.2 4.608 4.8-1.6 1.024-3.328 1.92-4.864 3.072l-86.528 65.28-35.648 26.688c-6.144-3.392-11.712-6.336-17.344-9.344z" fill="#F7DEB0" p-id="11083"></path><path d="M793.344 686.656c-1.536-1.6-2.816-3.584-4.608-4.8-15.36-10.432-32.64-14.08-50.944-14.016l-12.096 0.128 27.776-26.496c5.696-0.832 11.328-1.728 17.024-2.496 18.304-2.56 35.456 1.152 51.52 10.048 5.312 2.944 10.304 6.528 15.488 9.792 14.848 17.28 23.552 37.568 29.312 59.328 0.32 1.216 1.024 2.368 1.6 3.584-1.344 1.792-2.432 3.84-3.968 5.44l-36.608 37.696c-0.384-1.984-1.024-3.904-1.024-5.888 0.192-25.216-10.176-46.336-25.664-65.408a427.2 427.2 0 0 1-7.808-6.912z" fill="#D63635" p-id="11084"></path><path d="M832.256 648.832c4.416-5.056 8.768-10.176 13.376-15.104 30.016-32.192 60.224-64.192 90.112-96.512 13.12-14.144 25.664-28.8 38.4-43.264l11.84 12.672c-1.472 1.216-3.072 2.304-4.416 3.648L879.36 613.824l-42.368 42.752-4.736-7.744z" fill="#D48642" p-id="11085"></path><path d="M241.216 633.344c2.944-11.52 5.952-23.04 8.704-34.56a123.136 123.136 0 0 0-0.256-52.736c-0.32-1.472-0.448-3.008-0.64-4.544 2.112 0.064 4.288-0.064 6.336 0.128l28.416 3.328 1.408 17.408-0.192 9.536a38.336 38.336 0 0 0-21.376 39.296 42.88 42.88 0 0 0 15.36 26.944 447.424 447.424 0 0 0-1.152 4.48c-5.952-1.536-11.84-3.2-17.792-4.672-6.208-1.6-12.544-3.072-18.816-4.608z" fill="#523427" p-id="11086"></path><path d="M283.776 544.96l-28.416-3.328c-2.048-0.192-4.224-0.064-6.336-0.128l-10.432-33.728c1.728-0.768 3.392-2.176 5.12-2.176 14.08-0.192 28.16-0.064 42.24-0.064l-2.176 39.424z" fill="#40190A" p-id="11087"></path><path d="M329.344 802.816c-2.56-12.8-5.696-25.6-7.552-38.528-2.752-18.624-6.656-37.312-1.856-56.192 0.512-2.112 1.536-4.16 2.368-6.208a127.36 127.36 0 0 0 1.664-0.192c1.024 2.496 2.496 4.928 3.008 7.552 5.12 25.28 10.112 50.56 15.104 75.84l2.304 13.056-15.04 4.672z" fill="#CB6926" p-id="11088"></path><path d="M274.496 660.032l-6.72 40.768c-19.84-9.792-27.648-26.56-27.84-47.808l34.56 7.04z" fill="#523427" p-id="11089"></path><path d="M274.496 660.032l-34.56-6.976 1.28-19.712c6.272 1.536 12.608 3.008 18.88 4.608l17.792 4.672-1.344 9.984a442.496 442.496 0 0 0-2.048 7.424z" fill="#40190A" p-id="11090"></path><path d="M431.424 324.16c-0.96-13.504 7.296-22.208 16.64-29.504 18.624-14.464 40.32-21.248 63.552-24.064 17.152-2.112 33.856-1.088 50.112 4.736 8.064 2.88 15.552 6.848 19.712 15.04a123.52 123.52 0 0 1-59.712 39.168c-0.512 0.192-1.28-0.448-1.984-0.64l1.28-1.216 5.632-4.928c-2.24-1.664-4.288-4.288-6.72-4.672a525.696 525.696 0 0 0-38.72-5.248 24.896 24.896 0 0 0-13.824 2.624c-6.656 3.904-6.528 10.624-0.896 17.92l-35.072-9.216z" fill="#452A1F" p-id="11091"></path><path d="M431.424 324.16l35.072 9.152c1.728 0.128 3.456 0.128 5.184 0.384 16.448 2.496 32.448 0.64 48.128-4.8 0.64 0.256 1.408 0.832 1.984 0.64 23.68-7.296 43.712-20.16 59.712-39.168l2.112 1.536c6.464 18.56-4.288 30.272-17.216 40.128a114.688 114.688 0 0 1-61.056 22.336c-8.704 0.768-17.472 0.64-26.176 0.96l-26.816-5.696c-8.704-4.672-16.64-10.24-20.992-19.648l0.064-5.824z" fill="#3F180A" p-id="11092"></path><path d="M452.352 349.632l26.816 5.696c-0.704 0.832-1.216 1.92-2.048 2.496-34.56 24.064-65.472 52.416-96 81.216-12.928 12.224-25.408 24.896-38.08 37.376-8 8-16.064 16-23.936 24.128-1.28 1.28-1.856 3.264-2.752 4.928-5.952 13.76-6.08 28.352-6.656 42.944l-0.704 9.152-23.744 4.8-1.472-17.408 2.176-39.424c2.496-10.048 9.728-16.768 16.448-24l4.544-5.12c18.56-16.896 36.8-34.176 55.808-50.56 29.056-25.216 58.624-49.792 88-74.624a18.88 18.88 0 0 0 1.6-1.6z" fill="#F3B153" p-id="11093"></path><path d="M335.872 672.96l-4.224-17.6 0.32-2.176c16.576 1.92 33.216 3.776 49.792 5.76 32.896 3.904 65.92 4.096 98.944 3.264 22.912-0.576 45.76-2.304 68.544-4.608 23.104-2.368 46.208-5.312 69.12-9.28a407.488 407.488 0 0 0 79.232-23.232c33.728-13.312 67.072-27.648 100.672-41.408 1.472-0.64 3.392-0.192 5.12-0.256l-21.824 27.648-14.336 15.296-1.152 1.088c-8.704 3.072-17.536 5.76-26.112 9.152-40 15.872-80.384 30.912-122.496 40a345.344 345.344 0 0 1-52.992 7.552c-31.808 1.792-63.68 2.496-95.552 2.304-18.432-0.064-36.8-2.56-55.232-4.288a1514.88 1514.88 0 0 1-44.736-4.8c-8.96-1.088-17.856-2.624-26.816-3.968-2.048-0.256-4.224-0.256-6.272-0.448z" fill="#3F180A" p-id="11094"></path><path d="M278.976 638.208a42.88 42.88 0 0 1-15.36-26.944 38.272 38.272 0 0 1 21.376-39.296c1.216 4.672 5.12 5.888 8.832 5.184 8.448-1.472 16.704-3.776 25.024-5.76a38.272 38.272 0 0 1 11.456 61.952l0.064-19.072c0.064-4.928-2.624-7.488-8.192-9.28 0 3.328 0.256 5.76-0.064 8.128-1.024 8-2.304 15.936-3.584 23.872-0.96 5.824-5.056 7.552-10.304 8a44.8 44.8 0 0 1-29.248-6.784z" fill="#F4B253" p-id="11095"></path><path d="M278.976 638.208a44.224 44.224 0 0 0 29.184 6.784c5.312-0.448 9.408-2.176 10.304-8 1.28-7.936 2.56-15.872 3.648-23.808 0.32-2.368 0.064-4.8 0.064-8.128 5.568 1.856 8.256 4.352 8.192 9.28v19.072c0.064 4.288-0.064 8.64 0.192 12.928 0.128 2.304 0.896 4.544 1.408 6.784a25.472 25.472 0 0 1-0.32 2.176c-18.688 5.12-37.12 6.016-55.104-2.688l1.344-9.984 1.088-4.416zM318.912 571.456c-8.32 1.984-16.64 4.224-25.024 5.76-3.776 0.64-7.68-0.512-8.832-5.248l0.192-9.536 23.744-4.864c-1.408 8 2.56 12.096 9.92 13.888z" fill="#CB6926" p-id="11096"></path><path d="M767.232 626.304l14.336-15.296c18.432 7.36 33.856 18.752 46.656 33.92 1.216 1.408 2.688 2.56 4.096 3.84l4.736 7.808 0.448 2.176c-5.12-3.264-10.112-6.848-15.488-9.792a80.896 80.896 0 0 0-51.52-10.048c-5.696 0.768-11.328 1.664-17.024 2.496l12.608-14.016 1.152-1.088z" fill="#B72123" p-id="11097"></path><path d="M793.344 686.656l7.744 6.848-69.056 59.392c-15.808 13.632-31.552 27.328-47.488 40.896-2.944 2.496-4.032 4.352-1.664 8.128 3.136 5.056 5.376 10.624 8 16 2.048 10.176 3.904 20.288 1.408 30.72-5.568 22.912-26.112 33.664-47.68 24.064-24.448-10.88-38.208-30.208-42.368-56.64a43.904 43.904 0 0 1 6.528-32 31.552 31.552 0 0 1 32.896-13.184l7.296 1.536 17.408 9.216c11.584-8.64 23.68-17.6 35.648-26.688l86.528-65.28c1.472-1.088 3.2-1.984 4.8-3.008z" fill="#D48540" p-id="11098"></path><path d="M519.808 328.896a99.328 99.328 0 0 1-48.128 4.8c-1.728-0.256-3.456-0.256-5.184-0.32-5.632-7.296-5.76-14.016 0.896-17.92a24.96 24.96 0 0 1 13.888-2.688c12.928 1.216 25.792 3.2 38.656 5.312 2.432 0.384 4.48 3.072 6.72 4.672l-5.632 4.928-1.216 1.216z" fill="#644538" p-id="11099"></path><path d="M767.232 626.304l-1.152 1.088 1.152-1.088z" fill="#513326" p-id="11100"></path></svg>