<?xml version="1.0" standalone="no"?><!DOCTYPE svg PUBLIC "-//W3C//DTD SVG 1.1//EN" "http://www.w3.org/Graphics/SVG/1.1/DTD/svg11.dtd"><svg t="1782883457433" class="icon" viewBox="0 0 1024 1024" version="1.1" xmlns="http://www.w3.org/2000/svg" p-id="6836" xmlns:xlink="http://www.w3.org/1999/xlink" width="200" height="200"><path d="M822.5 115.4H231.1c-43.8 0-79.4 35.6-79.4 79.4v632.6c0 43.8 35.6 79.4 79.4 79.4h591.5c28.6 0 51.8-23.3 51.8-51.8V167.3c0-28.6-23.3-51.9-51.9-51.9zM200.2 792.1c0-17 13.8-30.8 30.8-30.8h594.7v93c0 1.8-1.5 3.3-3.3 3.3H231.1c-17 0-30.8-13.8-30.8-30.8v-34.7z m306.3-309.6l-76.6-49.2c-8.1-5.2-18.6-5.1-26.8 0.4l-69.8 47.4V164h173.1v318.5z m-208.7 66c3.5 1.8 7.4 2.8 11.3 2.8 4.9 0 9.6-1.5 13.7-4.2l94.4-64.2 100.4 64.6c7.4 4.8 16.9 5.1 24.7 0.9 7.8-4.2 12.7-12.4 12.7-21.3V164h267.5c1.8 0 3.3 1.5 3.3 3.3v545.4H231.1c-10.6 0-21.1 2.2-30.8 6.4V194.8c0-17 13.8-30.8 30.8-30.8h53.8v363c-0.1 9 4.9 17.2 12.9 21.5z" fill="#4E30DC" p-id="6837"></path><path d="M284.8 164v363c0 9 5 17.2 13 21.5 3.5 1.8 7.4 2.8 11.3 2.8 4.9 0 9.6-1.5 13.7-4.2l94.4-64.2 100.4 64.6c7.4 4.8 16.9 5.1 24.7 0.9 7.8-4.2 12.7-12.4 12.7-21.3V164H284.8z m48.6 0h173.1v318.5l-76.6-49.2c-8.1-5.2-18.6-5.1-26.8 0.4l-69.8 47.4V164z" fill="#FF4E7D" p-id="6838"></path></svg>
