<?xml version="1.0" standalone="no"?><!DOCTYPE svg PUBLIC "-//W3C//DTD SVG 1.1//EN" "http://www.w3.org/Graphics/SVG/1.1/DTD/svg11.dtd"><svg t="1782873987735" class="icon" viewBox="0 0 1024 1024" version="1.1" xmlns="http://www.w3.org/2000/svg" p-id="12151" xmlns:xlink="http://www.w3.org/1999/xlink" width="200" height="200"><path d="M853.333333 426.666667H170.666667v384h682.666666v-384zM128 128h768a42.666667 42.666667 0 0 1 42.666667 42.666667v682.666666a42.666667 42.666667 0 0 1-42.666667 42.666667H128a42.666667 42.666667 0 0 1-42.666667-42.666667V170.666667a42.666667 42.666667 0 0 1 42.666667-42.666667z m85.333333 128v85.333333h85.333334V256H213.333333z m170.666667 0v85.333333h85.333333V256H384z m-170.666667 213.333333h128v213.333334H213.333333v-213.333334z" fill="#2c2c2c" p-id="12152"></path></svg>