<?xml version="1.0" standalone="no"?><!DOCTYPE svg PUBLIC "-//W3C//DTD SVG 1.1//EN" "http://www.w3.org/Graphics/SVG/1.1/DTD/svg11.dtd"><svg t="1782874209567" class="icon" viewBox="0 0 1024 1024" version="1.1" xmlns="http://www.w3.org/2000/svg" p-id="21120" xmlns:xlink="http://www.w3.org/1999/xlink" width="200" height="200"><path d="M206 496m53.55 0l538.9 0q53.55 0 53.55 53.55l0 226.9q0 53.55-53.55 53.55l-538.9 0q-53.55 0-53.55-53.55l0-226.9q0-53.55 53.55-53.55Z" fill="#D7E0FF" p-id="21121"></path><path d="M791.56 850H190.29c-44.59 0-80.87-36.28-80.87-80.87V323.87c0-44.59 36.28-80.87 80.87-80.87h372.42c11.05 0 20 8.95 20 20s-8.95 20-20 20H190.29c-22.53 0-40.87 18.33-40.87 40.87v445.27c0 22.53 18.33 40.87 40.87 40.87h601.27c22.53 0 40.87-18.33 40.87-40.87V476c0-11.05 8.95-20 20-20s20 8.95 20 20v293.13c0 44.59-36.28 80.87-80.87 80.87z" fill="#4047D5" p-id="21122"></path><path d="M592 439H225c-11.05 0-20-8.95-20-20s8.95-20 20-20h367c11.05 0 20 8.95 20 20s-8.95 20-20 20zM491 727H385.57c-11.05 0-20-8.95-20-20s8.95-20 20-20H491c11.05 0 20 8.95 20 20s-8.95 20-20 20zM273 726.85c-5.12 0-10.24-1.95-14.14-5.86-7.81-7.81-7.81-20.47 0-28.28l61.28-61.28-61.28-61.28c-7.81-7.81-7.81-20.47 0-28.28 7.81-7.81 20.47-7.81 28.28 0l62.02 62.02c7.36 7.36 11.41 17.14 11.41 27.55s-4.05 20.19-11.41 27.55l-62.02 62.02a19.92 19.92 0 0 1-14.14 5.86z m47.88-94.69zM754.23 496c-17.83 0-33.1-11.52-38-28.66-6.42-22.44-18.53-43.03-35.04-59.54a138.073 138.073 0 0 0-59.54-35.04c-17.14-4.9-28.66-20.17-28.66-38s11.52-33.1 28.66-38c22.44-6.42 43.03-18.53 59.54-35.04a138.073 138.073 0 0 0 35.04-59.54c4.9-17.14 20.17-28.66 38-28.66s33.1 11.52 38 28.66c6.42 22.44 18.53 43.03 35.04 59.54a138.073 138.073 0 0 0 59.54 35.04c17.14 4.9 28.66 20.17 28.66 38s-11.52 33.1-28.66 38c-22.44 6.42-43.03 18.53-59.54 35.04a138.073 138.073 0 0 0-35.04 59.54c-4.9 17.14-20.17 28.66-38 28.66z m-0.52-39.47z m1.05 0zM634.23 334.76c28.35 8.39 54.34 23.84 75.25 44.76 20.91 20.91 36.36 46.9 44.76 75.25 8.39-28.35 23.84-54.34 44.76-75.25 20.91-20.91 46.9-36.36 75.25-44.76-28.35-8.39-54.34-23.84-75.25-44.76-20.91-20.91-36.36-46.9-44.76-75.25-8.39 28.35-23.84 54.34-44.76 75.25-20.91 20.91-46.9 36.36-75.25 44.76z m241.77 0.52z m-243.53 0zM876 334.23z m-243.53 0z m121.24-121.24z m1.05 0z" fill="#4047D5" p-id="21123"></path></svg>